<?xml version="1.0" encoding="UTF-8" standalone="no"?>
<!-- Created with Inkscape (http://www.inkscape.org/) -->
<svg
   xmlns:ns="http://creativecommons.org/ns#"
   xmlns:dc="http://purl.org/dc/elements/1.1/"
   xmlns:cc="http://web.resource.org/cc/"
   xmlns:rdf="http://www.w3.org/1999/02/22-rdf-syntax-ns#"
   xmlns:svg="http://www.w3.org/2000/svg"
   xmlns="http://www.w3.org/2000/svg"
   xmlns:sodipodi="http://sodipodi.sourceforge.net/DTD/sodipodi-0.dtd"
   xmlns:inkscape="http://www.inkscape.org/namespaces/inkscape"
   width="744.09448819"
   height="1052.3622047"
   id="svg1341"
   sodipodi:version="0.32"
   inkscape:version="0.45.1"
   sodipodi:docbase="/home/kevin/public_html/swahili/segmenter/images"
   sodipodi:docname="gpl-v3-blue.svg"
   inkscape:output_extension="org.inkscape.output.svg.inkscape">
  <defs
     id="defs1343">
    <inkscape:perspective
       sodipodi:type="inkscape:persp3d"
       inkscape:vp_x="0 : 526.18109 : 1"
       inkscape:vp_y="0 : 1000 : 0"
       inkscape:vp_z="744.09448 : 526.18109 : 1"
       inkscape:persp3d-origin="372.04724 : 350.78739 : 1"
       id="perspective79" />
  </defs>
  <sodipodi:namedview
     id="base"
     pagecolor="#ffffff"
     bordercolor="#666666"
     borderopacity="1.0"
     inkscape:pageopacity="0.0"
     inkscape:pageshadow="2"
     inkscape:zoom="1.1345904"
     inkscape:cx="359.80057"
     inkscape:cy="751.19933"
     inkscape:document-units="px"
     inkscape:current-layer="layer1"
     inkscape:window-width="1034"
     inkscape:window-height="981"
     inkscape:window-x="0"
     inkscape:window-y="0"
     showgrid="false" />
  <metadata
     id="metadata1346">
    <rdf:RDF>
      <ns:Work
         rdf:about="">
        <dc:format>image/svg+xml</dc:format>
        <dc:type
           rdf:resource="http://purl.org/dc/dcmitype/StillImage" />
      </ns:Work>
      <cc:Work
         rdf:about="">
        <dc:format>image/svg+xml</dc:format>
        <dc:type
           rdf:resource="http://purl.org/dc/dcmitype/StillImage" />
      </cc:Work>
    </rdf:RDF>
  </metadata>
  <g
     inkscape:label="Layer 1"
     inkscape:groupmode="layer"
     id="layer1">
    <g
       id="g3156"
       inkscape:export-filename="/home/kevin/public_html/swahili/images/gpl3_blue.png"
       inkscape:export-xdpi="9.7503653"
       inkscape:export-ydpi="9.7503653">
      <path
         d="M 362.97584,236.03717 C 362.97584,236.03717 362.95878,236.03717 362.95878,236.03717 C 361.35588,236.03717 359.94054,236.56579 358.61047,237.64007 C 357.62144,238.42448 356.93935,239.48172 356.39368,240.65832 C 356.39368,240.65832 356.46189,240.65832 356.46189,240.65832 C 357.00756,239.48172 357.68965,238.42448 358.66163,237.64007 C 359.9917,236.56579 361.40703,236.05421 362.97584,236.03717 z "
         id="path2577"
         style="fill:#bd0000;fill-opacity:1;fill-rule:evenodd;stroke:none;stroke-width:1pt;stroke-linecap:butt;stroke-linejoin:miter" />
      <path
         style="fill:#6699cc;fill-opacity:1;fill-rule:evenodd;stroke:none;stroke-width:1pt;stroke-linecap:butt;stroke-linejoin:miter"
         d="M 96.464956,30.592565 C 96.464976,30.592565 37.155222,289.35998 37.155222,289.35998 C 37.172272,289.35998 37.174412,289.35998 37.208512,289.35998 C 37.208512,289.35998 311.58933,289.35998 311.58933,289.35998 C 311.58934,289.35998 454.29506,289.35998 454.29506,289.35998 C 437.29399,287.87645 423.87179,281.90816 415.8743,271.02886 C 414.39077,269.01667 413.16512,266.84893 412.09083,264.58098 C 411.40876,262.90988 410.76715,261.22384 410.11916,259.51862 C 408.41392,254.09601 407.73399,248.07871 408.04092,241.66708 C 408.89354,223.79633 417.27897,202.53906 431.80746,180.2791 C 447.23971,156.62253 469.60583,131.8282 497.29862,108.81965 C 503.50561,103.66646 509.92365,98.577665 516.64223,93.632515 C 524.94664,87.522725 533.31504,81.895905 541.68768,76.633585 C 572.53513,57.212815 603.30585,43.623465 630.57235,36.720765 C 604.51658,45.221275 575.2443,59.652145 546.32374,79.298005 C 545.28358,80.000555 544.25616,80.720155 543.23302,81.429525 C 527.18689,92.547575 512.64988,104.35538 499.96304,116.27998 C 459.14001,154.66456 437.56258,194.43883 447.3676,217.74068 C 448.06676,219.34358 448.90016,220.87403 449.87215,222.32346 C 460.4104,237.82394 486.52802,240.50325 519.62637,232.18178 C 521.87726,231.61903 524.12815,230.98174 526.44725,230.3167 C 537.01963,227.26433 548.24425,223.14196 559.80565,218.06042 C 562.58514,216.83265 565.39452,215.57079 568.22518,214.22366 C 568.51506,214.08724 568.78791,213.95083 569.07779,213.79736 C 605.56952,195.66574 633.61404,174.80277 639.68463,162.26769 C 641.01471,159.54107 641.33443,157.21639 640.43066,155.39352 C 636.09942,146.61164 605.79121,152.54452 569.07779,168.44912 C 566.12776,169.72801 563.14362,171.04404 560.12538,172.44573 C 562.5809,170.16586 565.13661,167.87744 567.74558,165.62484 C 571.90633,162.04046 576.21414,158.53539 580.80118,155.0738 C 587.98018,149.63753 595.23803,144.72308 602.38291,140.36625 C 635.83934,115.12559 652.75301,91.249035 649.22321,82.388725 C 648.55816,80.719295 647.14284,79.570835 644.96015,78.871695 C 637.98577,76.653225 625.25632,79.300985 609.78996,85.639295 C 597.03492,90.870935 582.38492,98.630095 567.53244,108.28677 C 567.53244,108.28677 565.50749,109.61897 565.50749,109.61897 C 565.50751,109.61897 565.13447,109.83211 565.13447,109.83211 C 565.13449,109.83213 557.99386,114.57476 557.99386,114.57476 C 557.99384,114.57475 562.09705,107.06113 562.09705,107.06113 C 568.1847,95.917495 578.10055,84.290465 590.44635,73.489595 C 599.50108,65.592705 609.84538,58.151975 620.98048,51.641435 C 625.19239,49.175705 629.39788,46.885575 633.60977,44.820555 C 637.92399,42.712865 642.24032,40.839665 646.45223,39.171965 C 658.68905,34.332665 670.37004,31.392165 680.55665,30.592565 C 679.62898,30.592565 651.94091,30.592565 651.94091,30.592565 C 651.94092,30.592565 555.48932,30.592565 555.48932,30.592565 C 555.48933,30.592565 130.19637,30.592565 130.19637,30.592565 C 130.19637,30.592565 96.464956,30.592565 96.464956,30.592565 z M 402.44567,30.965665 C 400.77458,56.470625 405.7197,93.827775 416.94006,135.30387 C 418.93515,142.68408 421.10718,150.19472 423.4945,157.79148 C 424.97806,162.48253 426.50849,167.1003 428.07728,171.64641 C 427.15648,173.00037 426.22924,174.34578 425.35958,175.6963 C 411.35973,197.15139 403.17678,217.42735 401.11347,235.05934 C 395.19633,215.24465 390.74146,193.54104 388.21773,170.52736 C 387.50154,163.93326 386.94094,157.41294 386.56579,150.97061 C 383.80332,104.17421 389.91228,61.753405 402.44567,30.965665 z M 123.05577,64.164165 C 123.37511,64.156625 123.68991,64.164165 124.01495,64.164165 C 124.01495,64.164145 187.05486,64.164165 187.05486,64.164165 C 192.44337,64.164145 196.6105,65.174075 199.57758,67.201585 C 202.5276,69.241045 203.63389,71.879015 202.93473,75.088235 C 202.93475,75.088255 195.4211,109.03279 195.4211,109.03279 C 195.4211,109.03282 173.19994,109.03279 173.19994,109.03279 C 173.19996,109.03282 180.50042,75.994135 180.50042,75.994135 C 180.5004,75.994135 124.86757,75.994135 124.86757,75.994135 C 124.86755,75.994135 104.77792,166.79719 104.77792,166.79719 C 104.77794,166.79719 97.530726,199.676 97.530726,199.676 C 97.530726,199.67603 153.1103,199.676 153.1103,199.676 C 153.1103,199.67603 153.16359,199.46284 153.16359,199.46284 C 153.16359,199.46286 164.30081,149.15879 164.30081,149.15879 C 164.30081,149.15878 138.18961,149.15879 138.18961,149.15879 C 138.18961,149.15878 140.69415,137.80841 140.69415,137.80841 C 140.69414,137.80839 189.02653,137.80841 189.02653,137.80841 C 189.02653,137.80839 175.1716,200.5819 175.1716,200.5819 C 174.98403,201.47541 174.65578,202.28498 174.21241,203.08643 C 173.06992,205.1668 171.07694,206.94877 168.29743,208.41526 C 164.44365,210.44449 159.831,211.45267 154.4425,211.45267 C 154.4425,211.4527 91.455876,211.45267 91.455876,211.45267 C 86.067352,211.4527 81.900232,210.44447 78.933152,208.41526 C 75.983142,206.38605 74.859802,203.79453 75.576002,200.5819 C 75.576012,200.58187 103.33914,75.088235 103.33914,75.088235 C 104.05532,71.879025 106.28919,69.241025 110.16003,67.201585 C 110.29645,67.128275 110.44992,67.111635 110.58633,67.041725 C 114.11935,65.272025 118.2657,64.277295 123.05577,64.164165 z M 221.85205,64.164165 C 221.85203,64.164145 301.19813,64.164165 301.19813,64.164165 C 306.51844,64.164145 310.70048,65.174075 313.66756,67.201585 C 316.65173,69.241045 317.79422,71.879015 317.07801,75.088235 C 317.07803,75.088255 302.2639,142.01819 302.2639,142.01819 C 301.56478,145.20693 299.27763,147.80868 295.38973,149.85155 C 291.50183,151.90121 286.92543,152.94226 281.58809,152.94226 C 281.58807,152.94226 223.93029,152.94226 223.93029,152.94226 C 223.93029,152.94226 212.79306,203.193 212.79306,203.193 C 212.79306,203.19303 210.98126,211.45267 210.98126,211.45267 C 210.98127,211.4527 189.23968,211.45267 189.23968,211.45267 C 189.23968,211.4527 190.89161,203.99233 190.89161,203.99233 C 190.89161,203.99236 221.85205,64.164165 221.85205,64.164165 z M 331.46582,64.164165 C 331.46581,64.164145 353.2074,64.164165 353.2074,64.164165 C 353.20742,64.164145 328.58826,175.37658 328.58826,175.37658 C 328.58828,175.3766 323.20616,199.676 323.20616,199.676 C 323.20616,199.67603 375.21542,199.676 375.21542,199.676 C 375.7611,203.66454 376.39841,207.58182 377.0805,211.45267 C 377.08048,211.4527 298.85345,211.45267 298.85345,211.45267 C 298.85347,211.4527 305.03488,183.52967 305.03488,183.52967 C 305.0349,183.52967 331.46582,64.164165 331.46582,64.164165 z M 240.9825,75.994135 C 240.98252,75.994135 226.5414,141.11228 226.5414,141.11228 C 226.5414,141.11226 280.73548,141.11228 280.73548,141.11228 C 280.73547,141.11226 295.12328,75.994135 295.12328,75.994135 C 295.1233,75.994135 240.9825,75.994135 240.9825,75.994135 z M 195.4211,221.68401 C 195.63377,221.67686 195.84634,221.68401 196.06057,221.68401 C 198.5843,221.68403 200.78829,222.12736 202.56172,222.96292 C 204.45452,223.84963 205.80804,225.16692 206.55834,226.90625 C 207.29159,228.59444 207.48342,230.51066 207.09121,232.60809 C 207.09121,232.6081 206.93136,233.40742 206.93136,233.40742 C 206.93137,233.40739 200.69664,233.40742 200.69664,233.40742 C 200.69662,233.40739 200.74993,232.66137 200.74993,232.66137 C 200.91111,231.19594 200.72944,230.04358 200.16375,229.25093 C 200.09003,229.15153 199.98322,229.02031 199.89731,228.93121 C 199.75663,228.78758 199.54533,228.62341 199.36444,228.5049 C 198.49206,227.9554 197.12741,227.65228 195.36782,227.65228 C 193.03167,227.6523 191.28595,228.05939 190.0923,228.87792 C 188.93274,229.67938 188.1995,230.57462 187.96077,231.6489 C 187.72202,232.74024 188.11423,233.31361 188.38708,233.62055 C 188.39558,233.62905 188.43001,233.66433 188.44035,233.67385 C 188.78587,233.9683 189.98571,234.6586 193.71588,235.53893 C 197.0922,236.35744 199.3282,237.09282 200.59006,237.72375 C 202.49993,238.69571 203.83425,239.95544 204.5334,241.5072 C 205.23251,243.04193 205.386,244.83877 204.9597,246.78274 C 204.5334,248.67553 203.56781,250.42126 202.13542,252.05828 C 200.7201,253.69528 198.91895,254.99125 196.75331,255.895 C 194.60471,256.78172 192.24727,257.28049 189.82585,257.28049 C 186.75645,257.28048 184.29242,256.81583 182.36551,255.895 C 180.35334,254.9401 178.90177,253.43311 178.04917,251.47209 C 177.23066,249.56224 177.05587,247.39447 177.51628,245.02424 C 177.51628,245.0242 177.67615,244.27819 177.67615,244.27819 C 177.67615,244.27819 183.80429,244.27819 183.80429,244.27819 C 183.80429,244.27819 183.751,245.02424 183.751,245.02424 C 183.59752,246.43956 183.74887,247.58205 184.12402,248.43466 C 184.48211,249.2532 185.16421,249.93099 186.25554,250.45963 C 187.41508,251.02232 188.86452,251.31223 190.51859,251.31223 C 192.00214,251.31222 193.3578,251.06284 194.5685,250.6195 C 195.76215,250.1932 196.71068,249.63046 197.39277,248.91427 C 198.05779,248.19805 198.44788,247.44138 198.6184,246.62287 C 198.78892,245.88962 198.74842,245.26937 198.45853,244.75779 C 198.13454,244.21215 197.49295,243.72826 196.48688,243.31901 C 196.48688,243.319 191.26462,241.77365 191.26462,241.77365 C 188.3487,241.04041 186.38557,240.34127 185.24307,239.64213 C 183.6913,238.72132 182.57226,237.54044 181.99248,236.12511 C 181.41271,234.7268 181.3509,233.1772 181.72605,231.48902 C 182.11825,229.6815 182.99004,227.96135 184.33716,226.42666 C 185.70136,224.87489 187.46198,223.6578 189.55941,222.85635 C 191.41384,222.16094 193.36537,221.75314 195.4211,221.68401 z M 251.3737,221.79059 C 251.71095,221.76432 252.02806,221.79059 252.38617,221.79059 C 252.38618,221.79059 256.22292,222.21689 256.22292,222.21689 C 256.22291,222.21689 257.50183,222.32346 257.50183,222.32346 C 257.50185,222.32348 255.63675,227.06611 255.63675,227.06611 C 255.63674,227.06612 255.26373,227.81215 255.26373,227.81215 C 255.26373,227.81213 252.33289,227.5457 252.33289,227.5457 C 251.46748,227.5457 250.83176,227.67923 250.41451,227.972 C 250.3868,227.99294 250.33351,228.05621 250.30793,228.07859 C 250.25203,228.12762 250.15802,228.21317 250.09478,228.29175 C 249.83819,228.62825 249.52566,229.22961 249.29546,230.3167 C 249.29544,230.3167 249.18462,230.7771 249.08231,231.16931 C 250.42944,231.16932 253.66508,231.16931 253.66508,231.16931 C 253.66508,231.16932 252.49275,236.44483 252.49275,236.44483 C 252.49275,236.44482 249.14199,236.44483 248.01655,236.44483 C 247.67549,237.97952 243.48705,256.74762 243.48705,256.74762 C 243.48703,256.74761 237.30562,256.74762 237.30562,256.74762 C 237.3056,256.74761 241.32355,238.71278 241.83512,236.44483 C 240.79491,236.44482 238.26481,236.44483 238.26481,236.44483 C 238.26481,236.44482 239.43715,231.16931 239.43715,231.16931 C 239.43716,231.16932 241.98219,231.16931 242.95416,231.16931 C 243.12468,230.43607 243.38046,229.51737 243.38046,229.51737 C 243.75562,227.81215 244.14781,226.58652 244.65937,225.73391 C 245.35854,224.55732 246.34543,223.57254 247.59024,222.85635 C 248.61551,222.26059 249.91222,221.9044 251.3737,221.79059 z M 266.13452,222.05703 C 266.1345,222.05702 264.51882,229.32766 264.10957,231.16931 C 265.30321,231.16932 268.10618,231.16931 268.10618,231.16931 C 268.10618,231.16932 266.93385,236.44483 266.93385,236.44483 C 266.93383,236.44482 263.99446,236.44483 262.93723,236.44483 C 262.61322,237.91129 260.05967,249.28728 260.05967,249.28728 C 260.05969,249.28727 259.84651,250.65359 259.84651,251.04579 C 259.84679,251.05885 259.84545,251.08948 259.84651,251.09907 C 259.84735,251.1031 259.84531,251.14905 259.84651,251.15237 C 259.84815,251.15506 259.89766,251.15023 259.89979,251.15237 C 259.89979,251.15234 260.53926,251.20566 260.53926,251.20566 C 260.53926,251.20566 263.47011,250.99251 263.47011,250.99251 C 263.47011,250.99251 263.15038,255.73515 263.15038,255.73515 C 263.1504,255.73515 263.20368,256.58776 263.20368,256.58776 C 263.20366,256.58774 258.9939,257.06736 258.9939,257.06736 C 257.3228,257.06734 256.09715,256.79453 255.21044,256.21475 C 254.27259,255.60084 253.7269,254.78662 253.50522,253.7635 C 253.47111,253.57591 253.39864,253.30308 253.39864,252.91089 C 253.39864,252.14353 253.54359,250.84544 254.0381,248.59455 C 254.03812,248.59457 256.27833,238.5593 256.7558,236.44483 C 255.95437,236.44482 253.82495,236.44483 253.82495,236.44483 C 253.82497,236.44482 254.99728,231.16931 254.99728,231.16931 C 254.99726,231.16932 257.07552,231.16931 257.92814,231.16931 C 258.20095,229.94156 259.15376,225.73391 259.15376,225.73391 C 259.15376,225.73392 264.10957,223.12279 264.10957,223.12279 C 264.10956,223.1228 266.13452,222.05703 266.13452,222.05703 z M 69.767582,222.27017 C 69.767602,222.27017 93.747266,222.27017 93.747266,222.27017 C 93.747266,222.27017 92.415066,228.23846 92.415066,228.23846 C 92.415066,228.23848 76.417952,228.23846 74.883252,228.23846 C 74.610432,229.44918 73.516942,234.35168 73.124742,236.12511 C 75.341542,236.12511 88.311872,236.12511 88.311872,236.12511 C 88.311872,236.12511 86.979662,242.09337 86.979662,242.09337 C 86.979652,242.09337 73.327242,242.09337 71.792532,242.09337 C 71.468542,243.57692 68.541952,256.74762 68.541952,256.74762 C 68.541972,256.74761 62.094092,256.74762 62.094092,256.74762 C 62.094102,256.74761 69.767582,222.27017 69.767582,222.27017 z M 101.90035,230.68972 C 102.14102,230.66016 102.40393,230.68972 102.64639,230.68972 C 104.18109,230.68972 105.59856,231.15652 106.96274,232.12849 C 106.96274,232.12851 107.81534,232.71466 107.81534,232.71466 C 107.81534,232.71466 104.51148,238.15006 104.51148,238.15006 C 104.51148,238.15004 103.60559,237.51059 103.60559,237.51059 C 102.94055,237.08431 102.22436,236.87114 101.47406,236.87114 C 100.82607,236.87116 100.22285,237.10134 99.608966,237.51059 C 98.960996,237.9369 98.419566,238.50174 98.010326,239.2691 C 97.294126,240.58214 96.769766,242.05288 96.411676,243.63873 C 96.411676,243.63875 93.534116,256.74762 93.534116,256.74762 C 93.534116,256.74761 87.352682,256.74762 87.352682,256.74762 C 87.352682,256.74761 93.054526,231.16931 93.054526,231.16931 C 93.054546,231.16932 98.809646,231.16931 98.809646,231.16931 C 98.809646,231.16932 98.611406,231.94519 98.543196,232.23507 C 98.816036,232.03046 99.103786,231.74908 99.342526,231.59561 C 100.1685,231.10271 101.0409,230.79525 101.90035,230.68972 z M 120.23149,230.68972 C 120.60368,230.66156 120.97008,230.68972 121.35055,230.68972 C 124.82921,230.68972 127.46163,231.90894 129.1839,234.31331 C 130.25818,235.86505 130.83585,237.78343 130.83585,240.06843 C 130.83585,241.33028 130.68024,242.68807 130.35626,244.17162 C 130.35626,244.17162 129.87665,246.03671 129.87665,246.03671 C 129.87665,246.03669 114.24404,246.03671 112.50471,246.03671 C 112.4706,246.39479 112.45142,246.77848 112.45142,247.10246 C 112.45142,248.43256 112.72425,249.47912 113.30403,250.24648 C 113.57953,250.62161 113.89893,250.95946 114.26322,251.20566 C 114.95,251.65355 115.83656,251.8984 116.87434,251.8984 C 118.13622,251.89839 119.24459,251.55096 120.28478,250.88593 C 121.27383,250.255 122.22022,249.24679 123.05577,247.84851 C 123.05577,247.84848 129.6635,247.84851 129.6635,247.84851 C 129.6635,247.84848 129.07734,249.12742 129.07734,249.12742 C 127.81547,251.68527 126.05483,253.68036 123.85509,255.0957 C 121.65536,256.51103 119.02718,257.28049 116.1283,257.28049 C 112.35976,257.28048 109.55467,256.06127 107.81534,253.65691 C 106.09308,251.30369 105.72219,248.05098 106.64301,243.95846 C 107.56384,239.79773 109.40121,236.47254 112.0784,234.15344 C 114.47798,232.07282 117.20085,230.91876 120.23149,230.68972 z M 147.99464,230.68972 C 148.36682,230.66156 148.73321,230.68972 149.11368,230.68972 C 152.59235,230.68972 155.22478,231.90894 156.94705,234.31331 C 158.02134,235.86505 158.59898,237.78343 158.59898,240.06843 C 158.59898,241.31323 158.44338,242.65184 158.11938,244.11832 C 158.11938,244.11835 157.6398,246.03671 157.6398,246.03671 C 157.6398,246.03669 142.00717,246.03671 140.26785,246.03671 C 140.25078,246.27541 140.23161,246.49072 140.21456,246.72946 C 140.20177,246.81897 140.22016,246.95487 140.21456,247.04918 C 140.21406,247.06456 140.21456,247.08755 140.21456,247.10246 C 140.21456,247.35827 140.2508,247.60977 140.26785,247.84851 C 140.35308,248.82047 140.60677,249.6326 141.06717,250.24648 C 141.15484,250.36584 141.23725,250.51318 141.33361,250.6195 C 142.11462,251.45504 143.22001,251.8984 144.63748,251.8984 C 145.89936,251.89839 147.02479,251.55096 148.04793,250.88593 C 149.03697,250.255 149.98335,249.24679 150.81891,247.84851 C 150.81891,247.84848 157.47993,247.84851 157.47993,247.84851 C 157.47992,247.84848 156.84047,249.12742 156.84047,249.12742 C 155.57861,251.68527 153.81797,253.68036 151.61823,255.0957 C 149.41849,256.51103 146.79032,257.28049 143.89145,257.28049 C 140.12292,257.28048 137.31782,256.06127 135.57849,253.65691 C 134.45304,252.1222 133.92655,250.16761 133.92655,247.84851 C 133.92655,247.49039 133.94573,247.1046 133.97984,246.72946 C 134.04807,245.84275 134.18447,244.9475 134.40615,243.95846 C 135.32699,239.81477 137.11106,236.47254 139.78825,234.15344 C 142.18782,232.07282 144.964,230.91876 147.99464,230.68972 z M 223.61055,230.68972 C 223.99139,230.66043 224.34167,230.68972 224.7296,230.68972 C 228.27647,230.68972 231.0027,231.88976 232.77612,234.26002 C 234.53252,236.63025 234.95881,239.82756 234.05503,243.85188 C 233.3559,246.98951 232.34556,249.52388 230.96433,251.36553 C 229.58307,253.20718 227.82245,254.71202 225.74207,255.73515 C 223.67879,256.75829 221.49394,257.28049 219.29421,257.28049 C 215.67914,257.28048 212.98702,256.04422 211.24769,253.65691 C 210.12223,252.13927 209.54247,250.18466 209.54247,247.84851 C 209.54249,246.58664 209.68103,245.24591 210.02207,243.74532 C 211.04522,239.17531 213.13409,235.69454 216.2035,233.4607 C 218.45651,231.83436 220.94464,230.89464 223.61055,230.68972 z M 317.23788,230.68972 C 317.68748,230.66197 318.10381,230.68972 318.57008,230.68972 C 320.71867,230.68972 322.40683,230.90712 323.68575,231.43574 C 325.04993,231.98143 326.01764,232.75303 326.56331,233.67385 C 327.09195,234.54348 327.36264,235.61141 327.36264,236.92442 C 327.36265,236.92444 326.72316,240.81446 326.72316,240.81446 C 326.72319,240.81446 325.55084,246.09 325.55084,246.09 C 324.54473,250.59176 324.32308,252.27994 324.27191,252.91089 C 324.22076,253.76351 324.29962,254.59479 324.53836,255.36213 C 324.53838,255.36212 324.96466,256.74762 324.96466,256.74762 C 324.96468,256.74761 318.67666,256.74762 318.67666,256.74762 C 318.67664,256.74761 318.41021,255.9483 318.41021,255.9483 C 318.3079,255.57318 318.33774,255.0957 318.30364,254.66939 C 317.10999,255.40264 315.9142,256.05275 314.83991,256.42789 C 313.25407,256.97359 311.60852,257.28049 309.9374,257.28049 C 307.03854,257.28048 304.89208,256.52596 303.5961,255.04239 C 302.60708,253.95106 302.15733,252.61673 302.15733,251.09907 C 302.15731,250.51931 302.23406,249.91821 302.37047,249.28728 C 302.66035,247.99132 303.18685,246.79126 304.02241,245.71697 C 304.84092,244.65971 305.80864,243.79008 306.89997,243.15914 C 307.95723,242.52823 309.13595,242.0806 310.36371,241.77365 C 310.36369,241.77365 314.14717,241.13419 314.14717,241.13419 C 317.06311,240.79313 319.23938,240.36898 320.80819,239.90857 C 320.84231,239.73804 320.91476,239.53555 320.91476,239.53555 C 321.16202,238.43837 321.13108,237.61366 320.86147,237.19087 C 320.84163,237.1636 320.77729,237.10773 320.7549,237.08429 C 320.69734,237.02294 320.60887,236.9265 320.54174,236.87114 C 319.90039,236.36361 318.80668,236.12511 317.34446,236.12511 C 315.69039,236.12511 314.4669,236.39581 313.61428,236.92442 C 312.77873,237.45305 312.00497,238.42076 311.32289,239.80197 C 311.32288,239.80196 304.87502,239.80197 304.87502,239.80197 C 304.87504,239.80196 305.46119,238.52307 305.46119,238.52307 C 306.22852,236.74962 307.14297,235.27889 308.28547,234.15344 C 309.42797,233.02796 310.97119,232.15619 312.76167,231.54233 C 314.13383,231.08936 315.63217,230.78879 317.23788,230.68972 z M 344.25499,230.68972 C 344.49545,230.66016 344.75855,230.68972 345.00102,230.68972 C 346.55275,230.68972 348.00647,231.15652 349.37065,232.12849 C 349.37067,232.12851 350.16997,232.71466 350.16997,232.71466 C 350.16998,232.71466 346.86611,238.15006 346.86611,238.15006 C 346.86612,238.15004 345.96021,237.51059 345.96021,237.51059 C 345.29518,237.08431 344.6152,236.87114 343.88197,236.87114 C 343.23396,236.87116 342.59453,237.10134 341.96358,237.51059 C 341.31561,237.9369 340.84454,238.50174 340.41824,239.2691 C 339.71908,240.58214 339.17768,242.05288 338.81959,243.63873 C 338.81957,243.63875 335.88874,256.74762 335.88874,256.74762 C 335.88876,256.74761 329.70732,256.74762 329.70732,256.74762 C 329.70732,256.74761 335.40914,231.16931 335.40914,231.16931 C 335.40913,231.16932 341.16426,231.16931 341.16426,231.16931 C 341.16426,231.16932 341.01932,231.94519 340.95112,232.23507 C 341.22394,232.03046 341.49465,231.74908 341.75044,231.59561 C 342.56307,231.10271 343.39615,230.79525 344.25499,230.68972 z M 362.53282,230.68972 C 362.90467,230.66156 363.27141,230.68972 363.65188,230.68972 C 367.13054,230.68972 369.78001,231.90894 371.48525,234.31331 C 372.5766,235.86505 373.13718,237.78343 373.13718,240.06843 C 373.13716,241.33028 372.92828,242.68807 372.60429,244.17162 C 372.60429,244.17162 372.17799,246.03671 372.17799,246.03671 C 372.17798,246.03669 356.52831,246.03671 354.80605,246.03671 C 354.77194,246.39479 354.69946,246.77848 354.69946,247.10246 C 354.69946,248.43256 354.98935,249.47912 355.55208,250.24648 C 355.63974,250.36584 355.77508,250.51318 355.8718,250.6195 C 355.92782,250.67917 356.02592,250.77723 356.08496,250.83264 C 356.84731,251.52566 357.88477,251.8984 359.17566,251.8984 C 360.43755,251.89839 361.54593,251.55096 362.58611,250.88593 C 363.57516,250.255 364.5045,249.24679 365.3571,247.84851 C 365.35708,247.84848 372.01812,247.84851 372.01812,247.84851 C 372.01812,247.84848 371.37866,249.12742 371.37866,249.12742 C 370.11679,251.68527 368.33911,253.68036 366.15642,255.0957 C 363.93965,256.51103 361.34557,257.28049 358.42963,257.28049 C 354.66112,257.28048 351.90929,256.06127 350.16997,253.65691 C 348.44767,251.30369 348.04057,248.05098 348.94434,243.95846 C 349.86515,239.79773 351.64925,236.47254 354.32645,234.15344 C 356.7412,232.07282 359.50497,230.91876 362.53282,230.68972 z M 269.22522,231.16931 C 269.22524,231.16932 275.56653,231.16931 275.56653,231.16931 C 275.56655,231.16932 276.34879,246.34792 276.36584,246.56958 C 276.62162,246.02602 276.82008,245.56871 276.84545,245.50383 C 276.84546,245.50384 283.82619,231.16931 283.82619,231.16931 C 283.82621,231.16932 289.6346,231.16931 289.6346,231.16931 C 289.63459,231.16932 290.16748,246.16459 290.16748,246.24985 C 290.33803,245.94294 298.10742,231.16931 298.10742,231.16931 C 298.1074,231.16932 304.39543,231.16931 304.39543,231.16931 C 304.39542,231.16932 290.5405,256.74762 290.5405,256.74762 C 290.54052,256.74761 284.83867,256.74762 284.83867,256.74762 C 284.83867,256.74761 284.28661,242.87779 284.2525,242.09337 C 281.89927,246.91917 277.11187,256.74762 277.11187,256.74762 C 277.11187,256.74761 271.25019,256.74762 271.25019,256.74762 C 271.25019,256.74761 269.22522,231.16931 269.22522,231.16931 z M 120.33807,236.01853 C 118.86914,236.08055 117.53512,236.61002 116.28818,237.61716 C 115.29916,238.40158 114.63197,239.478 114.10335,240.6546 C 114.10335,240.65462 124.60112,240.6546 124.60112,240.6546 C 124.61819,240.46704 124.65441,240.23896 124.65441,240.06843 C 124.65439,239.09647 124.48175,238.3419 124.17482,237.83033 C 123.42454,236.60255 122.31187,236.01853 120.6578,236.01853 C 120.5587,236.01853 120.436,236.01441 120.33807,236.01853 z M 148.1012,236.01853 C 146.63228,236.08055 145.29825,236.61002 144.0513,237.61716 C 143.06226,238.40158 142.41217,239.478 141.8665,240.6546 C 141.8665,240.65462 152.36426,240.6546 152.36426,240.6546 C 152.3813,240.46704 152.41755,240.23896 152.41755,240.06843 C 152.41754,239.09647 152.26195,238.3419 151.93795,237.83033 C 151.78901,237.58094 151.58752,237.33294 151.40507,237.13759 C 150.69308,236.40187 149.71317,236.01853 148.42094,236.01853 C 148.32183,236.01853 148.19914,236.01441 148.1012,236.01853 z M 362.85256,236.01853 C 361.342,236.06506 359.93131,236.57647 358.64279,237.61716 C 357.67081,238.40158 357.00364,239.478 356.45797,240.6546 C 356.45799,240.65462 366.90246,240.6546 366.90246,240.6546 C 366.91949,240.46704 366.95575,240.23896 366.95575,240.06843 C 366.95574,239.09647 366.80015,238.3419 366.47615,237.83033 C 365.74291,236.61961 364.61319,236.03558 362.95913,236.01853 C 362.91011,236.01906 362.90129,236.01703 362.85256,236.01853 z M 223.23754,236.12511 C 221.82791,236.2925 220.51718,236.93562 219.29421,238.04348 C 217.82773,239.37357 216.76409,241.46245 216.15022,244.22491 C 215.89443,245.38446 215.77719,246.37562 215.77719,247.26233 C 215.77721,248.47303 216.00952,249.4237 216.46994,250.13989 C 216.59251,250.32372 216.7551,250.518 216.89625,250.67278 C 217.65429,251.47765 218.71284,251.8984 220.04025,251.8984 C 221.76251,251.89839 223.28017,251.25682 224.7296,249.92674 C 226.19612,248.5796 227.24267,246.4694 227.8736,243.63873 C 228.4534,241.04678 228.37238,239.11138 227.55388,237.88362 C 226.76948,236.68995 225.62272,236.12511 224.03687,236.12511 C 223.76776,236.12511 223.49857,236.0941 223.23754,236.12511 z M 319.52927,245.45054 C 318.07986,245.84271 316.4556,246.17311 314.30703,246.46302 C 312.70414,246.70176 311.56162,246.95326 310.89658,247.20905 C 310.31682,247.44777 309.85,247.77815 309.4578,248.22153 C 309.08264,248.6478 308.83114,249.09545 308.71178,249.60702 C 308.67769,249.81166 308.65848,250.02266 308.65848,250.19318 C 308.65848,250.20703 308.65817,250.23277 308.65848,250.24648 C 308.66027,250.28706 308.65403,250.36718 308.65848,250.40633 C 308.66916,250.4837 308.69065,250.60073 308.71178,250.67278 C 308.7194,250.69651 308.75629,250.75617 308.76505,250.77935 C 308.78371,250.82519 308.7952,250.89545 308.81834,250.93922 C 308.84261,250.98248 308.89624,251.0577 308.92492,251.09907 C 308.96956,251.16045 309.03042,251.25468 309.08479,251.31223 C 309.5111,251.78969 310.36157,252.00498 311.58933,252.00498 C 312.93648,252.00499 314.23243,251.7492 315.42608,251.15237 C 316.6027,250.5726 317.55121,249.70719 318.25035,248.70111 C 318.76194,247.9849 319.17118,246.88291 319.52927,245.45054 z "
         id="path2579" />
      <path
         d="M 363.02694,236.03717 C 363.00988,236.03717 362.99283,236.03717 362.97578,236.03717 C 364.62985,236.05421 365.72119,236.61695 366.45443,237.82765 C 366.77843,238.33921 366.94895,239.10657 366.94895,240.07855 C 366.94895,240.24907 366.91484,240.47075 366.89779,240.65832 C 366.89779,240.65832 366.966,240.65832 366.966,240.65832 C 366.966,240.47075 367.0001,240.24907 367.0001,240.07855 C 367.0001,239.10657 366.84663,238.33921 366.52264,237.82765 C 365.7894,236.59989 364.681,236.03717 363.02694,236.03717 z "
         id="path2583"
         style="fill:#bd0000;fill-opacity:1;fill-rule:evenodd;stroke:none;stroke-width:1pt;stroke-linecap:butt;stroke-linejoin:miter" />
      <path
         style="fill:#577ed0;fill-opacity:0;fill-rule:evenodd;stroke:#6699cc;stroke-width:8.52610779;stroke-linecap:butt;stroke-linejoin:miter;stroke-miterlimit:4;stroke-opacity:0.94117647"
         id="path2647"
         d="M 406.50294,262.5456 C 407.19515,264.32522 407.88739,266.10193 408.60844,267.8397 C 409.7189,270.20047 411.0024,272.46031 412.54548,274.57015 C 420.88105,285.90101 434.84094,292.1051 452.56479,293.64962 C 452.56479,293.64962 471.62985,293.64962 471.62985,293.64962 C 477.65796,293.17948 483.97452,292.30266 490.52183,291.02203 C 501.81376,288.81413 513.7835,285.42224 526.21471,280.88959 C 535.63186,277.45584 545.30861,273.39335 555.12956,268.67181 C 576.51644,258.41967 598.60997,245.19673 620.28531,229.23946 C 627.42388,223.98865 634.27403,218.60084 640.85018,213.12216 C 646.87831,208.1064 652.66128,203.01274 658.18464,197.8629 C 673.60109,183.00601 685.23914,167.91693 691.82971,154.668 C 698.69423,140.87109 700.06432,129.07441 694.43999,121.64306 C 690.99326,117.0816 685.22472,114.63717 677.79771,114.06176 C 711.25524,88.957055 730.75299,58.503435 723.75867,39.302865 C 721.53771,33.175165 716.64886,28.603665 709.64009,26.075565 C 706.52512,24.955065 703.02066,24.245465 699.19899,23.922465 C 699.19899,23.922465 688.90216,23.922465 688.90216,23.922465 C 674.52408,24.959365 653.61552,30.107765 635.87726,38.800965"
         sodipodi:nodetypes="cccccssccccscccsccc" />
    </g>
    <g
       id="g3162"
       inkscape:export-filename="/home/kevin/public_html/swahili/images/agpl3_blue.png"
       inkscape:export-xdpi="12.541376"
       inkscape:export-ydpi="12.541376">
      <path
         d="M 412.74009,579.62491 C 412.74009,579.62491 412.72679,579.62491 412.72679,579.62491 C 411.48668,579.62491 410.39172,580.03401 409.36258,580.86526 C 408.59736,581.47201 408.0695,582.29021 407.64732,583.20057 C 407.64732,583.20057 407.70007,583.20057 407.70007,583.20057 C 408.12223,582.29021 408.65011,581.47201 409.40201,580.86526 C 410.43116,580.03401 411.52611,579.63823 412.74009,579.62491 z "
         id="path3550"
         style="fill:#bd0000;fill-opacity:1;fill-rule:evenodd;stroke:none;stroke-width:1pt;stroke-linecap:butt;stroke-linejoin:miter" />
      <path
         d="M 412.77954,579.62491 C 412.76646,579.62491 412.75316,579.62491 412.74009,579.62491 C 414.01987,579.63823 414.8642,580.07368 415.43152,581.01042 C 415.68216,581.4062 415.814,581.99989 415.814,582.7518 C 415.814,582.8839 415.78764,583.05541 415.77457,583.20057 C 415.77457,583.20057 415.8273,583.20057 415.8273,583.20057 C 415.8273,583.05541 415.85367,582.8839 415.85367,582.7518 C 415.85367,581.99989 415.73489,581.4062 415.48425,581.01042 C 414.91694,580.06038 414.05933,579.62491 412.77954,579.62491 z "
         id="path3554"
         style="fill:#bd0000;fill-opacity:1;fill-rule:evenodd;stroke:none;stroke-width:1pt;stroke-linecap:butt;stroke-linejoin:miter" />
      <path
         id="path3618"
         sodipodi:nodetypes="cccccssccccscccsccc"
         d="M 446.41738,600.13495 C 446.95306,601.51174 447.48849,602.88644 448.0464,604.23089 C 448.90564,606.05758 449.89855,607.80609 451.09257,609.43832 C 457.54194,618.20512 468.34272,623.00528 482.05574,624.20045 C 482.05574,624.20045 496.80662,624.20045 496.80662,624.20045 C 501.47058,623.83653 506.35789,623.15823 511.42359,622.16738 C 520.16012,620.45901 529.42129,617.83477 539.03951,614.3277 C 546.32563,611.67112 553.81265,608.52796 561.41109,604.8748 C 577.9584,596.94247 595.05238,586.712 611.8228,574.36567 C 617.346,570.30297 622.64582,566.13433 627.734,561.89552 C 632.39797,558.01488 636.87227,554.07371 641.14594,550.08922 C 653.07355,538.59431 662.07813,526.91985 667.17733,516.66897 C 672.48839,505.99409 673.54849,496.86705 669.19686,491.11731 C 666.5302,487.588 662.0669,485.69663 656.3206,485.25155 C 682.20705,465.82777 697.29251,442.26559 691.881,427.40991 C 690.16254,422.66891 686.38006,419.1318 680.9573,417.17577 C 678.54725,416.30898 675.83587,415.75978 672.87891,415.50982 C 672.87891,415.50982 664.91219,415.50982 664.91219,415.50982 C 653.78785,416.31219 637.61066,420.29554 623.88639,427.02147"
         style="fill:#ffffff;fill-opacity:0;fill-rule:evenodd;stroke:#6699cc;stroke-width:6.59672832;stroke-linecap:butt;stroke-linejoin:miter;stroke-miterlimit:4;stroke-opacity:1" />
      <path
         d="M 85.839478,420.67071 C 85.839478,420.67071 39.950984,620.8814 39.950984,620.8814 C 39.964202,620.8814 160.66445,620.8814 160.69084,620.8814 C 213.77386,620.8814 372.9817,620.8814 372.9817,620.8814 C 372.98194,620.8814 483.39447,620.8814 483.39447,620.8814 C 470.24072,619.73346 459.85569,615.11584 453.66798,606.69852 C 452.52027,605.14149 451.57184,603.46432 450.74081,601.70963 C 450.21295,600.41677 449.71671,599.11221 449.2152,597.79299 C 447.89576,593.59729 447.36971,588.94183 447.60727,583.98092 C 448.26701,570.15414 454.75489,553.70728 465.99572,536.48442 C 477.93571,518.18128 495.24066,498.99759 516.6668,481.19572 C 521.46925,477.2087 526.43498,473.27143 531.63301,469.44513 C 538.05829,464.71813 544.53311,460.36443 551.01093,456.29302 C 574.87784,441.26694 598.68558,430.75281 619.78197,425.41217 C 599.62231,431.98902 576.9742,443.1544 554.59804,458.35452 C 553.79316,458.89799 552.99837,459.45475 552.20655,460.00373 C 539.79165,468.60586 528.54419,477.74162 518.7283,486.96771 C 487.143,516.66622 470.44848,547.43997 478.03479,565.46886 C 478.57572,566.70898 479.22054,567.89314 479.97246,569.01471 C 488.12606,581.00743 508.33341,583.0804 533.94194,576.64204 C 535.68355,576.20681 537.42517,575.71356 539.2193,575.199 C 547.39927,572.83754 556.08397,569.64783 565.02915,565.71629 C 567.17964,564.76626 569.35328,563.79008 571.54343,562.74764 C 571.76769,562.64216 571.97866,562.53668 572.20292,562.41789 C 600.43705,548.38933 622.13537,532.24745 626.83212,522.54896 C 627.86128,520.43931 628.10869,518.6406 627.4093,517.23032 C 624.05815,510.43561 600.60859,515.02597 572.20292,527.33148 C 569.92059,528.32117 567.61166,529.33933 565.27636,530.42373 C 567.17619,528.65988 569.15378,526.88914 571.17217,525.14638 C 574.39146,522.37309 577.7245,519.66125 581.27354,516.98289 C 586.82791,512.77688 592.44328,508.97445 597.97152,505.60357 C 623.85704,486.07455 636.94337,467.60124 634.21226,460.74577 C 633.6977,459.45407 632.60275,458.56571 630.91386,458.02453 C 625.51772,456.30814 615.66881,458.35681 603.70245,463.26084 C 593.83359,467.30866 582.49876,473.31179 571.00729,480.78341 C 571.00729,480.78341 569.44064,481.81418 569.44064,481.81418 C 569.44064,481.81418 569.15193,481.97904 569.15193,481.97904 C 569.15193,481.97904 563.62739,485.64847 563.62739,485.64847 C 563.62739,485.64847 566.80196,479.83522 566.80196,479.83522 C 571.51201,471.21312 579.18407,462.21726 588.73602,453.86048 C 595.74169,447.75048 603.74534,441.99364 612.36055,436.95636 C 615.61927,435.04849 618.87319,433.27662 622.13194,431.679 C 625.47001,430.04815 628.80947,428.5989 632.06822,427.30857 C 641.53599,423.56437 651.93663,418.83598 659.81828,418.2173 C 659.10052,418.2173 636.31504,420.67071 636.31504,420.67071 C 636.31504,420.67071 561.68947,420.67071 561.68947,420.67071 C 561.68947,420.67071 232.63652,420.67071 232.63652,420.67071 C 232.63652,420.67071 85.839478,420.67071 85.839478,420.67071 z M 443.27812,420.9594 C 441.98526,440.69276 445.81132,469.59625 454.49258,501.68671 C 456.03629,507.39679 457.71669,513.20798 459.56379,519.08568 C 460.71172,522.71521 461.89588,526.28787 463.10962,529.80528 C 462.39715,530.85278 461.67987,531.89384 461.00684,532.93881 C 450.1751,549.53864 443.84383,565.22648 442.24737,578.86843 C 437.66917,563.53762 434.22264,546.7454 432.26981,528.93941 C 431.7158,523.83768 431.28217,518.79285 430.99188,513.80832 C 428.85446,477.6015 433.58102,444.77999 443.27812,420.9594 z M 227.11173,446.64521 C 227.3587,446.63948 227.60223,446.64521 227.85379,446.64521 C 227.85379,446.64521 276.62846,446.64521 276.62846,446.64521 C 280.79756,446.64521 284.02167,447.4267 286.3173,448.99542 C 288.59964,450.57331 289.45566,452.61441 288.9147,455.09738 C 288.9147,455.09738 283.10145,481.36059 283.10145,481.36059 C 283.10145,481.36059 265.90863,481.36059 265.90863,481.36059 C 265.90863,481.36059 271.55702,455.79838 271.55702,455.79838 C 271.55702,455.79838 228.51351,455.79838 228.51351,455.79838 C 228.51351,455.79838 212.96991,526.0533 212.96991,526.0533 C 212.96991,526.0533 207.36256,551.49213 207.36256,551.49213 C 207.36256,551.49213 250.36501,551.49213 250.36501,551.49213 C 250.36501,551.49213 250.40629,551.32726 250.40629,551.32726 C 250.40629,551.32726 259.02333,512.40632 259.02333,512.40632 C 259.02333,512.40632 238.82082,512.40632 238.82082,512.40632 C 238.82082,512.40632 240.75872,503.62461 240.75872,503.62461 C 240.75872,503.62439 278.15384,503.62461 278.15384,503.62461 C 278.15384,503.62439 267.43424,552.19291 267.43424,552.19291 C 267.28908,552.88429 267.035,553.51054 266.69196,554.13083 C 265.80795,555.74034 264.26607,557.11896 262.1156,558.25383 C 259.13387,559.82369 255.56511,560.6038 251.39576,560.6038 C 251.39576,560.6038 202.6626,560.6038 202.6626,560.6038 C 198.49349,560.6038 195.26938,559.82369 192.97353,558.25383 C 190.6912,556.68373 189.822,554.67863 190.37613,552.19291 C 190.37613,552.19291 211.85684,455.09738 211.85684,455.09738 C 212.41085,452.61441 214.13917,450.57331 217.13395,448.99542 C 217.23968,448.93855 217.35846,448.92571 217.46394,448.87181 C 220.19756,447.50259 223.40562,446.73281 227.11173,446.64521 z M 303.5514,446.64521 C 303.55116,446.64521 364.94206,446.64521 364.94206,446.64521 C 369.05841,446.64521 372.294,447.4267 374.58987,448.99542 C 376.89856,450.57331 377.78256,452.61441 377.22855,455.09738 C 377.22855,455.09738 365.76666,506.88175 365.76666,506.88175 C 365.22573,509.34892 363.45613,511.3618 360.44802,512.94245 C 357.43992,514.52836 353.89914,515.3337 349.76946,515.3337 C 349.76946,515.3337 305.15909,515.3337 305.15909,515.3337 C 305.15909,515.3337 296.54227,554.21315 296.54227,554.21315 C 296.54227,554.21315 295.14049,560.6038 295.14049,560.6038 C 295.14049,560.6038 278.31871,560.6038 278.31871,560.6038 C 278.31871,560.6038 279.59688,554.83159 279.59688,554.83159 C 279.59688,554.83159 303.5514,446.64521 303.5514,446.64521 z M 388.36044,446.64521 C 388.36044,446.64521 405.182,446.64521 405.182,446.64521 C 405.182,446.64521 386.13405,532.69138 386.13405,532.69138 C 386.13405,532.69138 381.96977,551.49213 381.96977,551.49213 C 381.96977,551.49213 422.20995,551.49213 422.20995,551.49213 C 422.63211,554.57797 423.12512,557.60901 423.653,560.6038 C 423.653,560.6038 363.12798,560.6038 363.12798,560.6038 C 363.12798,560.6038 367.91049,538.99951 367.91049,538.99951 C 367.91049,538.99951 388.36044,446.64521 388.36044,446.64521 z M 318.35272,455.79838 C 318.35272,455.79838 307.17933,506.18075 307.17933,506.18075 C 307.17933,506.18075 349.10997,506.18075 349.10997,506.18075 C 349.10997,506.18075 360.24188,455.79838 360.24188,455.79838 C 360.24188,455.79838 318.35272,455.79838 318.35272,455.79838 z M 228.94164,574.70964 C 229.10628,574.7039 229.2707,574.70964 229.43649,574.70964 C 231.38907,574.70964 233.09445,575.05245 234.46642,575.69911 C 235.93104,576.38521 236.9783,577.40427 237.55869,578.75011 C 238.12601,580.05625 238.27436,581.53874 237.97099,583.16158 C 237.97099,583.16158 237.84738,583.78004 237.84738,583.78004 C 237.84738,583.78004 233.0236,583.78004 233.0236,583.78004 C 233.02338,583.78004 233.06464,583.20286 233.06464,583.20286 C 233.18939,582.06891 233.04883,581.17735 232.61131,580.56418 C 232.5542,580.48736 232.47143,580.38578 232.40492,580.31675 C 232.29622,580.20554 232.13272,580.07873 231.99285,579.987 C 231.31776,579.56163 230.26202,579.32728 228.9006,579.32728 C 227.09293,579.32728 225.74229,579.64213 224.81885,580.27547 C 223.92157,580.89554 223.35426,581.58828 223.16964,582.41954 C 222.98483,583.26385 223.28821,583.70758 223.49939,583.9449 C 223.50604,583.95155 223.53266,583.97885 223.54068,583.98618 C 223.80805,584.21388 224.73631,584.74819 227.62242,585.42924 C 230.23472,586.06259 231.96464,586.63151 232.94106,587.11972 C 234.41873,587.87162 235.45109,588.84643 235.99203,590.04686 C 236.53299,591.23448 236.65177,592.62455 236.32178,594.12861 C 235.99203,595.59322 235.24494,596.94386 234.13667,598.21035 C 233.04172,599.47683 231.64819,600.4796 229.97239,601.179 C 228.31012,601.86509 226.48618,602.25081 224.61271,602.25081 C 222.23773,602.25081 220.33125,601.89147 218.84049,601.179 C 217.28369,600.44017 216.16053,599.27412 215.50103,597.75677 C 214.86767,596.27932 214.7324,594.60191 215.0885,592.7681 C 215.0885,592.7681 215.21233,592.19093 215.21233,592.19093 C 215.21233,592.19093 219.95379,592.19093 219.95379,592.19093 C 219.95379,592.19093 219.91253,592.7681 219.91253,592.7681 C 219.79374,593.86306 219.91092,594.74706 220.20099,595.40678 C 220.47823,596.04015 221.00587,596.56457 221.8502,596.97343 C 222.74749,597.4089 223.86882,597.63317 225.1486,597.63317 C 226.29653,597.63317 227.3454,597.44032 228.28214,597.09727 C 229.20558,596.76728 229.9396,596.33205 230.46724,595.77781 C 230.98182,595.2238 231.28359,594.63814 231.41545,594.005 C 231.54753,593.43769 231.51611,592.95774 231.29185,592.56196 C 231.04121,592.1398 230.54474,591.76534 229.76624,591.44889 C 229.76624,591.44864 225.72578,590.25303 225.72578,590.25303 C 223.46982,589.68572 221.95087,589.14476 221.06688,588.60382 C 219.8662,587.89157 219.00056,586.97777 218.55179,585.88282 C 218.10325,584.80092 218.05556,583.60185 218.34586,582.29571 C 218.64925,580.89714 219.32366,579.56645 220.3661,578.37907 C 221.42162,577.1784 222.78373,576.23662 224.40656,575.61657 C 225.84135,575.07861 227.35114,574.76306 228.94164,574.70964 z M 272.23279,574.79197 C 272.49374,574.77178 272.73912,574.79197 273.01612,574.79197 C 273.01612,574.79197 275.98454,575.12172 275.98454,575.12172 C 275.98454,575.12172 276.97403,575.20426 276.97403,575.20426 C 276.97426,575.20426 275.53119,578.87369 275.53119,578.87369 C 275.53119,578.87369 275.2425,579.45087 275.2425,579.45087 C 275.2425,579.45087 272.97483,579.24472 272.97483,579.24472 C 272.30525,579.24472 271.81339,579.34813 271.49051,579.57471 C 271.4692,579.59076 271.42791,579.63982 271.40819,579.65703 C 271.36486,579.69508 271.29216,579.76113 271.24332,579.82212 C 271.04473,580.0824 270.80305,580.54767 270.62486,581.38878 C 270.62486,581.38878 270.53911,581.74489 270.46,582.0485 C 271.5022,582.0485 274.00561,582.0485 274.00561,582.0485 C 274.00561,582.0485 273.09868,586.13025 273.09868,586.13025 C 273.09868,586.13025 270.50608,586.13025 269.6354,586.13025 C 269.37146,587.31761 266.13083,601.8385 266.13083,601.8385 C 266.13083,601.8385 261.34809,601.8385 261.34809,601.8385 C 261.34809,601.8385 264.45685,587.88492 264.85265,586.13025 C 264.04777,586.13025 262.09037,586.13025 262.09037,586.13025 C 262.09037,586.13025 262.9973,582.0485 262.9973,582.0485 C 262.9973,582.0485 264.96639,582.0485 265.71854,582.0485 C 265.85038,581.48119 266.04827,580.77033 266.04827,580.77033 C 266.33858,579.45087 266.64196,578.50268 267.03776,577.84294 C 267.57894,576.93258 268.34231,576.17081 269.3054,575.61657 C 270.09883,575.15564 271.10206,574.88001 272.23279,574.79197 z M 283.6534,574.99811 C 283.6534,574.99811 282.4032,580.62356 282.08675,582.0485 C 283.01019,582.0485 285.17878,582.0485 285.17878,582.0485 C 285.17878,582.0485 284.27185,586.13025 284.27185,586.13025 C 284.27185,586.13025 281.99754,586.13025 281.17958,586.13025 C 280.92896,587.26463 278.95321,596.06652 278.95321,596.06652 C 278.95321,596.06652 278.78833,597.12363 278.78833,597.42702 C 278.78857,597.43711 278.78743,597.46073 278.78833,597.46829 C 278.78901,597.4715 278.78743,597.50681 278.78833,597.50957 C 278.78947,597.51164 278.82778,597.50796 278.82939,597.50957 C 278.82939,597.50957 279.32423,597.55061 279.32423,597.55061 C 279.32423,597.55061 281.59189,597.38574 281.59189,597.38574 C 281.59189,597.38574 281.34447,601.05517 281.34447,601.05517 C 281.34447,601.05517 281.38575,601.71489 281.38575,601.71489 C 281.38575,601.71489 278.12861,602.08592 278.12861,602.08592 C 276.83575,602.08592 275.88732,601.87496 275.20122,601.4262 C 274.47569,600.9513 274.05352,600.32139 273.882,599.52979 C 273.85563,599.38465 273.79944,599.17344 273.79944,598.87007 C 273.79944,598.27638 273.91157,597.272 274.29429,595.53039 C 274.29429,595.53039 276.02743,587.76614 276.39686,586.13025 C 275.77679,586.13025 274.12943,586.13025 274.12943,586.13025 C 274.12943,586.13025 275.03636,582.0485 275.03636,582.0485 C 275.03636,582.0485 276.64428,582.0485 277.304,582.0485 C 277.51519,581.09847 278.25221,577.84294 278.25221,577.84294 C 278.25221,577.84294 282.08675,575.82272 282.08675,575.82272 C 282.08675,575.82272 283.6534,574.99811 283.6534,574.99811 z M 131.72247,575.16298 C 131.72247,575.16298 150.27576,575.16298 150.27576,575.16298 C 150.27576,575.16298 149.24503,579.78086 149.24503,579.78086 C 149.24503,579.78086 136.86793,579.78086 135.68051,579.78086 C 135.46946,580.71759 134.62342,584.51063 134.31997,585.88282 C 136.03513,585.88282 146.07036,585.88282 146.07036,585.88282 C 146.07036,585.88282 145.03961,590.50046 145.03961,590.50046 C 145.03961,590.50046 134.47663,590.50046 133.28921,590.50046 C 133.03853,591.64838 130.7742,601.8385 130.7742,601.8385 C 130.7742,601.8385 125.78541,601.8385 125.78541,601.8385 C 125.78541,601.8385 131.72247,575.16298 131.72247,575.16298 z M 156.58391,581.67747 C 156.77005,581.65455 156.97346,581.67747 157.16107,581.67747 C 158.34849,581.67747 159.44525,582.03864 160.50071,582.79057 C 160.50071,582.79057 161.16039,583.24414 161.16039,583.24414 C 161.16039,583.24414 158.60413,587.44947 158.60413,587.44947 C 158.60413,587.44947 157.90321,586.95461 157.90321,586.95461 C 157.38871,586.62486 156.83459,586.46 156.25406,586.46 C 155.7527,586.46 155.28601,586.63816 154.81104,586.95461 C 154.30968,587.2846 153.89077,587.72166 153.57418,588.31535 C 153.02005,589.3312 152.6143,590.46904 152.33725,591.69607 C 152.33725,591.69607 150.11082,601.8385 150.11082,601.8385 C 150.11082,601.8385 145.32822,601.8385 145.32822,601.8385 C 145.32822,601.8385 149.73983,582.0485 149.73983,582.0485 C 149.73983,582.0485 154.1926,582.0485 154.1926,582.0485 C 154.1926,582.0485 154.03917,582.64862 153.98641,582.87289 C 154.19756,582.71465 154.42014,582.49704 154.60491,582.37825 C 155.24392,581.99692 155.91891,581.75889 156.58391,581.67747 z M 170.76685,581.67747 C 171.05482,581.65548 171.33829,581.67747 171.6327,581.67747 C 174.32413,581.67747 176.36084,582.62064 177.6934,584.48104 C 178.5246,585.68147 178.97158,587.16582 178.97158,588.93379 C 178.97158,589.90998 178.85119,590.96068 178.60051,592.10838 C 178.60051,592.10838 178.22944,593.55143 178.22944,593.55143 C 178.22944,593.55143 166.13433,593.55143 164.78856,593.55143 C 164.76216,593.82845 164.74729,594.12539 164.74729,594.37603 C 164.74729,595.40518 164.95844,596.21488 165.40695,596.80857 C 165.62013,597.09886 165.86726,597.36029 166.1491,597.55061 C 166.68051,597.89733 167.36647,598.08674 168.16942,598.08674 C 169.14569,598.08674 170.00328,597.81776 170.80808,597.30342 C 171.57326,596.81521 172.30552,596.03511 172.95202,594.95321 C 172.95202,594.95321 178.06447,594.95321 178.06447,594.95321 C 178.06447,594.95321 177.611,595.94268 177.611,595.94268 C 176.63465,597.92186 175.27238,599.46536 173.57046,600.56056 C 171.86854,601.65551 169.83508,602.25081 167.59216,602.25081 C 164.67644,602.25081 162.5061,601.30764 161.16039,599.44724 C 159.82783,597.62652 159.54087,595.10984 160.25328,591.9435 C 160.96581,588.72421 162.38734,586.15156 164.45871,584.35721 C 166.31531,582.74744 168.42203,581.85451 170.76685,581.67747 z M 192.24754,581.67747 C 192.53532,581.65548 192.81897,581.67747 193.11318,581.67747 C 195.80484,581.67747 197.84157,582.62064 199.17411,584.48104 C 200.00534,585.68147 200.45204,587.16582 200.45204,588.93379 C 200.45204,589.8969 200.33165,590.93248 200.08101,592.0671 C 200.08101,592.0671 199.71,593.55143 199.71,593.55143 C 199.71,593.55143 187.61489,593.55143 186.26918,593.55143 C 186.25596,593.73626 186.2411,593.90273 186.22796,594.08732 C 186.21805,594.15659 186.2323,594.26183 186.22796,594.33475 C 186.22758,594.34668 186.22796,594.36456 186.22796,594.37603 C 186.22796,594.57392 186.25596,594.76862 186.26918,594.95321 C 186.33511,595.70536 186.53141,596.33366 186.88762,596.80857 C 186.95548,596.90097 187.01922,597.01495 187.09372,597.09727 C 187.698,597.7437 188.55326,598.08674 189.64998,598.08674 C 190.62631,598.08674 191.497,597.81776 192.28858,597.30342 C 193.05402,596.81521 193.7862,596.03511 194.43264,594.95321 C 194.43264,594.95321 199.58618,594.95321 199.58618,594.95321 C 199.58618,594.95321 199.09154,595.94268 199.09154,595.94268 C 198.11513,597.92186 196.75302,599.46536 195.05108,600.56056 C 193.34914,601.65551 191.3156,602.25081 189.0728,602.25081 C 186.15701,602.25081 183.98667,601.30764 182.64097,599.44724 C 181.77022,598.25987 181.36287,596.74756 181.36287,594.95321 C 181.36287,594.67619 181.37764,594.37764 181.40411,594.08732 C 181.45687,593.40147 181.56239,592.7087 181.73394,591.9435 C 182.44638,588.73751 183.82674,586.15156 185.89811,584.35721 C 187.75465,582.74744 189.90259,581.85451 192.24754,581.67747 z M 250.75209,581.67747 C 251.04676,581.65477 251.3178,581.67747 251.61798,581.67747 C 254.36236,581.67747 256.47157,582.60573 257.84354,584.43976 C 259.20266,586.27356 259.53241,588.74737 258.83323,591.86096 C 258.29229,594.28867 257.51058,596.24951 256.44176,597.67445 C 255.37316,599.09938 254.01105,600.26359 252.4013,601.05517 C 250.80506,601.84675 249.11457,602.25081 247.41263,602.25081 C 244.61549,602.25081 242.53268,601.29434 241.18684,599.44724 C 240.31616,598.27294 239.86762,596.76088 239.86762,594.95321 C 239.86762,593.97704 239.97471,592.93964 240.23863,591.77864 C 241.03021,588.24265 242.6464,585.54963 245.02116,583.82132 C 246.76438,582.56285 248.68966,581.83593 250.75209,581.67747 z M 323.19256,581.67747 C 323.54043,581.65592 323.86238,581.67747 324.22331,581.67747 C 325.8856,581.67747 327.19174,581.84557 328.18123,582.25465 C 329.23675,582.67683 329.98544,583.27371 330.40759,583.98618 C 330.81669,584.65898 331.02605,585.48541 331.02605,586.50126 C 331.02605,586.50126 330.53144,589.51097 330.53144,589.51097 C 330.53144,589.51097 329.62427,593.59271 329.62427,593.59271 C 328.84577,597.07572 328.67448,598.38186 328.6348,598.87007 C 328.59513,599.52979 328.65614,600.17279 328.84095,600.7667 C 328.84095,600.7667 329.1707,601.8385 329.1707,601.8385 C 329.1707,601.8385 324.30563,601.8385 324.30563,601.8385 C 324.30563,601.8385 324.09949,601.22006 324.09949,601.22006 C 324.02038,600.92996 324.04354,600.56056 324.01716,600.23057 C 323.0935,600.79788 322.16846,601.30099 321.3372,601.59107 C 320.11017,602.01346 318.83703,602.25081 317.54395,602.25081 C 315.30129,602.25081 313.64039,601.66698 312.6376,600.51928 C 311.87262,599.67495 311.52453,598.64259 311.52453,597.46829 C 311.52453,597.01975 311.58393,596.55471 311.68941,596.06652 C 311.91368,595.06374 312.32117,594.13525 312.96759,593.304 C 313.60094,592.48604 314.34965,591.81325 315.19396,591.32504 C 316.01191,590.83686 316.92388,590.49059 317.87392,590.25303 C 317.87392,590.25303 320.80131,589.75839 320.80131,589.75839 C 323.05726,589.49445 324.74111,589.16631 325.95484,588.80997 C 325.98122,588.67811 326.0374,588.5215 326.0374,588.5215 C 326.22864,587.67259 326.2048,587.03442 325.99612,586.70742 C 325.98076,586.68631 325.931,586.64298 325.91356,586.62486 C 325.86908,586.57739 325.80074,586.50286 325.7487,586.46 C 325.25247,586.06741 324.40631,585.88282 323.27488,585.88282 C 321.9951,585.88282 321.04851,586.09218 320.38902,586.50126 C 319.74235,586.91013 319.14384,587.65883 318.61598,588.72764 C 318.61598,588.72764 313.62731,588.72764 313.62731,588.72764 C 313.62731,588.72764 314.08067,587.73817 314.08067,587.73817 C 314.67436,586.36598 315.38201,585.2279 316.26599,584.35721 C 317.15,583.48653 318.34401,582.81188 319.72928,582.33697 C 320.79076,581.98659 321.95016,581.75407 323.19256,581.67747 z M 344.09586,581.67747 C 344.28206,581.65455 344.48546,581.67747 344.67304,581.67747 C 345.87372,581.67747 346.99848,582.03864 348.054,582.79057 C 348.054,582.79057 348.67244,583.24414 348.67244,583.24414 C 348.67244,583.24414 346.11608,587.44947 346.11608,587.44947 C 346.11608,587.44947 345.41532,586.95461 345.41532,586.95461 C 344.90074,586.62486 344.37447,586.46 343.8074,586.46 C 343.30589,586.46 342.81104,586.63816 342.32305,586.95461 C 341.82155,587.2846 341.45719,587.72166 341.12744,588.31535 C 340.58648,589.3312 340.16754,590.46904 339.89052,591.69607 C 339.89052,591.69607 337.62287,601.8385 337.62287,601.8385 C 337.62287,601.8385 332.84013,601.8385 332.84013,601.8385 C 332.84013,601.8385 337.25184,582.0485 337.25184,582.0485 C 337.25184,582.0485 341.70461,582.0485 341.70461,582.0485 C 341.70461,582.0485 341.59248,582.64862 341.53973,582.87289 C 341.7507,582.71465 341.9603,582.49704 342.15819,582.37825 C 342.78695,581.99692 343.43132,581.75889 344.09586,581.67747 z M 358.23769,581.67747 C 358.52525,581.65548 358.80914,581.67747 359.10335,581.67747 C 361.79501,581.67747 363.84482,582.62064 365.16426,584.48104 C 366.00859,585.68147 366.44221,587.16582 366.44221,588.93379 C 366.44221,589.90998 366.28078,590.96068 366.02992,592.10838 C 366.02992,592.10838 365.70017,593.55143 365.70017,593.55143 C 365.70017,593.55143 353.59187,593.55143 352.25933,593.55143 C 352.23295,593.82845 352.17679,594.12539 352.17679,594.37603 C 352.17679,595.40518 352.40127,596.21488 352.83651,596.80857 C 352.90438,596.90097 353.00919,597.01495 353.08393,597.09727 C 353.12726,597.14336 353.20318,597.21925 353.2488,597.26214 C 353.83859,597.79828 354.64142,598.08674 355.64007,598.08674 C 356.61646,598.08674 357.47409,597.81776 358.27875,597.30342 C 359.04419,596.81521 359.76307,596.03511 360.42279,594.95321 C 360.42279,594.95321 365.57657,594.95321 365.57657,594.95321 C 365.57657,594.95321 365.08171,595.94268 365.08171,595.94268 C 364.1053,597.92186 362.72989,599.46536 361.04125,600.56056 C 359.32601,601.65551 357.31907,602.25081 355.06289,602.25081 C 352.1472,602.25081 350.01804,601.30764 348.67244,599.44724 C 347.33992,597.62652 347.02486,595.10984 347.72401,591.9435 C 348.43648,588.72421 349.81693,586.15156 351.8883,584.35721 C 353.75651,582.74744 355.89505,581.85451 358.23769,581.67747 z M 286.04465,582.0485 C 286.04465,582.0485 290.95099,582.0485 290.95099,582.0485 C 290.95099,582.0485 291.55613,593.79221 291.56943,593.96374 C 291.76734,593.54317 291.92098,593.18936 291.94046,593.13914 C 291.94046,593.13914 297.34165,582.0485 297.34165,582.0485 C 297.34165,582.0485 301.83568,582.0485 301.83568,582.0485 C 301.83568,582.0485 302.24799,593.65026 302.24799,593.71631 C 302.37985,593.47897 308.391,582.0485 308.391,582.0485 C 308.391,582.0485 313.25606,582.0485 313.25606,582.0485 C 313.25606,582.0485 302.53646,601.8385 302.53646,601.8385 C 302.53646,601.8385 298.12499,601.8385 298.12499,601.8385 C 298.12499,601.8385 297.69777,591.10744 297.67139,590.50046 C 295.85067,594.23431 292.14661,601.8385 292.14661,601.8385 C 292.14661,601.8385 287.61129,601.8385 287.61129,601.8385 C 287.61129,601.8385 286.04465,582.0485 286.04465,582.0485 z M 170.84932,585.80026 C 169.71282,585.84819 168.6806,586.25797 167.71586,587.03717 C 166.95068,587.64416 166.43445,588.477 166.02547,589.38714 C 166.02547,589.38738 174.14766,589.38714 174.14766,589.38714 C 174.16087,589.24223 174.18888,589.06565 174.18888,588.93379 C 174.18888,588.18166 174.05533,587.59784 173.81781,587.20204 C 173.23737,586.25224 172.37647,585.80026 171.09666,585.80026 C 171.01999,585.80026 170.92507,585.79706 170.84932,585.80026 z M 192.32986,585.80026 C 191.19338,585.84819 190.16127,586.25797 189.19643,587.03717 C 188.43124,587.64416 187.92825,588.477 187.50604,589.38714 C 187.50604,589.38738 195.62826,589.38714 195.62826,589.38714 C 195.64134,589.24223 195.66954,589.06565 195.66954,588.93379 C 195.66954,588.18166 195.54915,587.59784 195.29851,587.20204 C 195.18316,587.00919 195.02724,586.81727 194.88622,586.66614 C 194.33518,586.097 193.57708,585.80026 192.57729,585.80026 C 192.50047,585.80026 192.40575,585.79706 192.32986,585.80026 z M 358.48512,585.80026 C 357.31632,585.83627 356.2248,586.23205 355.22776,587.03717 C 354.47585,587.64416 353.95966,588.477 353.53751,589.38714 C 353.53751,589.38738 361.61843,589.38714 361.61843,589.38714 C 361.63173,589.24223 361.65971,589.06565 361.65971,588.93379 C 361.65971,588.18166 361.53932,587.59784 361.28868,587.20204 C 360.72137,586.2653 359.84722,585.81355 358.56744,585.80026 C 358.52961,585.80072 358.52272,585.79911 358.48512,585.80026 z M 250.46362,585.88282 C 249.37301,586.01215 248.35877,586.50998 247.41263,587.36692 C 246.278,588.39607 245.455,590.01225 244.9801,592.14965 C 244.78221,593.04671 244.69141,593.81376 244.69141,594.49964 C 244.69141,595.43637 244.87118,596.17199 245.22752,596.726 C 245.32224,596.86841 245.44813,597.01861 245.55727,597.13832 C 246.14385,597.76111 246.96273,598.08674 247.98981,598.08674 C 249.32234,598.08674 250.49665,597.59028 251.61798,596.56114 C 252.7526,595.51892 253.5623,593.88622 254.05051,591.69607 C 254.49904,589.69076 254.43642,588.19336 253.80308,587.24332 C 253.19631,586.31988 252.30889,585.88282 251.08206,585.88282 C 250.87386,585.88282 250.66565,585.85873 250.46362,585.88282 z M 324.96537,593.09785 C 323.84404,593.40147 322.58718,593.65691 320.92491,593.88142 C 319.6848,594.06601 318.80079,594.26069 318.28623,594.45858 C 317.8377,594.64319 317.47653,594.89887 317.17292,595.24192 C 316.88284,595.57167 316.68817,595.91791 316.59574,596.31393 C 316.56939,596.47217 316.55448,596.63542 316.55448,596.76728 C 316.55448,596.77807 316.55424,596.79802 316.55448,596.80857 C 316.55585,596.83998 316.55102,596.9019 316.55448,596.93239 C 316.56274,596.99201 316.57947,597.08259 316.59574,597.13832 C 316.60171,597.1569 316.63015,597.20298 316.63702,597.22086 C 316.65147,597.25641 316.66041,597.31075 316.6783,597.3447 C 316.69687,597.37795 316.73861,597.43618 316.76063,597.46829 C 316.79524,597.51575 316.84226,597.58867 316.88445,597.63317 C 317.2142,598.00259 317.87231,598.16907 318.82213,598.16907 C 319.86457,598.16907 320.86712,597.97118 321.79078,597.50957 C 322.70116,597.06081 323.43494,596.39121 323.97588,595.61293 C 324.37168,595.05891 324.68835,594.20611 324.96537,593.09785 z M 73.129046,560.0403 L 183.78064,445.79412 L 201.85043,445.79412 L 175.13339,560.0403 L 160.2708,560.0403 L 167.85682,527.15362 L 121.46988,527.15362 L 89.947253,560.0403 L 73.129046,560.0403 M 132.74245,515.38609 L 170.68118,515.38609 L 177.68093,486.70767 C 180.50593,475.3299 183.22522,465.84836 185.83883,458.26304 C 180.61573,464.80927 173.70547,472.57635 165.10806,481.56424 L 132.74245,515.38609"
         style="fill:#6699cc;fill-opacity:1;fill-rule:evenodd;stroke:none;stroke-width:1pt;stroke-linecap:butt;stroke-linejoin:miter;stroke-opacity:1"
         id="path3552" />
    </g>
  </g>
</svg>
